<svg xmlns="http://www.w3.org/2000/svg" id="Calque_2" data-name="Calque 2" viewBox="0 0 200.01 83.23"><defs><style>      .cls-1 {        fill: #fff;      }      .cls-2 {        fill: #eb651d;      }    </style></defs><g id="Calque_2-2" data-name="Calque 2"><g id="Calque_1-2" data-name="Calque 1-2"><g><polygon class="cls-1" points="71.97 35.01 73.71 31.29 88.01 62.68 84.41 62.68 80.57 54.31 63.25 54.2 64.64 51.17 79.44 51.17 71.97 35.01"></polygon><path class="cls-1" d="m117.34,49.72c5.78-1.33,6.55-3.89,6.55-3.89,0,0,3.11-3.67,1.22-9-1.89-5.33-9.88-5.87-9.88-5.87h-14.4v31.72h3.41l.05-12.32h9.01l9.06,12.32h4.53l-9.56-12.96h0Zm-13.06-2.61v-12.85h10.86s3.21.28,4.68,1.71c1.46,1.42,1.95,2.64,1.95,2.64,0,0,.98,2.93,0,4.47-.98,1.55-2.52,3.94-7.73,4.03-5.21.08-9.76,0-9.76,0Z"></path><polygon class="cls-1" points="149.51 35.1 151.25 31.38 165.55 62.77 161.94 62.77 158.11 54.4 140.79 54.28 142.18 51.26 156.98 51.26 149.51 35.1"></polygon><path class="cls-1" d="m196.07,37.11l2.11-2.66s-3.86-3.49-7.99-3.67-7.81-.46-10.84,2.62c-3.03,3.08-2.57,7.21-2.57,7.21,0,0,.25,3.06,2.66,4.7s4.38,2.13,4.38,2.13c0,0,5.68,1.45,7.44,1.97,1.76.52,4.47,2.34,4.32,5.4s-3.02,4.26-3.02,4.26c0,0-5.18,2.31-9.5-.15s-5.37-3.55-5.37-3.55l-2.31,2.68,1.33,1.05c2.16,1.71,4.63,3,7.32,3.6s6.12.74,9.66-.79c2.35-1.02,4.31-2.87,5.15-5.28.6-1.71.73-3.88-.62-6.22-.95-1.64-2.46-2.87-4.19-3.65s-4.56-1.78-8.48-2.35c-3.39-.5-4.69-2.17-5.11-3.84-.61-2.46.68-5.08,2.98-6.12.58-.26,1.23-.45,1.96-.49,2.9-.17,6.93-.27,10.7,3.17v-.02Z"></path><polygon class="cls-1" points="5.03 1.7 0 1.7 0 64.55 5.03 58.23 5.03 1.7"></polygon><polygon class="cls-1" points="50.43 .84 45.09 7.3 45.09 63.77 50.43 63.77 50.43 .84"></polygon><polygon class="cls-2" points="21.09 37.8 23.47 34.23 45.09 34.23 45.09 37.8 21.09 37.8"></polygon><g><path class="cls-1" d="m4.09,83.03H.44v-11.05h3.64c1.01,0,1.95.24,2.81.72s1.54,1.14,2.06,1.97c.51.84.77,1.78.77,2.84s-.26,2-.77,2.84-1.2,1.49-2.06,1.97-1.79.72-2.81.72h.01Zm0-.66c1.27-.02,2.29-.47,3.05-1.34.77-.88,1.15-2.06,1.15-3.52s-.39-2.64-1.17-3.53c-.78-.89-1.79-1.34-3.03-1.34H1.77v9.72h2.32Z"></path><path class="cls-1" d="m24.71,83.03h-8.17v-11.05h7.95v.66h-6.63v4.53h5.96v.66h-5.96v4.53h6.85v.66h0Z"></path><path class="cls-1" d="m40.85,83.23c-.71,0-1.32-.09-1.83-.26-.51-.18-.94-.39-1.29-.64-.34-.25-.62-.49-.84-.73l.49-.45c.8.93,1.97,1.4,3.51,1.42.72,0,1.31-.1,1.79-.3.47-.21.83-.48,1.07-.81.24-.34.36-.71.36-1.1,0-.45-.15-.82-.45-1.11s-.69-.54-1.17-.74c-.48-.21-1-.4-1.55-.58-1.18-.39-2.05-.77-2.6-1.14-.81-.54-1.22-1.25-1.22-2.13s.39-1.55,1.18-2.09c.79-.55,1.8-.82,3.03-.82.58,0,1.11.09,1.59.27.49.17.91.39,1.26.63s.62.46.8.67l-.5.45-.21-.21c-.14-.14-.35-.3-.62-.48s-.59-.34-.97-.48c-.38-.14-.82-.2-1.31-.2-.88,0-1.57.17-2.09.51-.51.34-.77.76-.77,1.25s.15.85.46,1.16c.31.29.7.55,1.18.76.49.21,1.01.4,1.56.57,1.18.38,2.04.76,2.58,1.12.81.53,1.21,1.23,1.21,2.12,0,.58-.2,1.13-.59,1.63-.38.51-.93.92-1.63,1.24-.7.31-1.5.47-2.42.47h0Z"></path><path class="cls-1" d="m63.13,83.03h-1.4l-1.82-3.92h-5.17l-1.76,3.92h-.66l4.97-11.05h.9l4.96,11.05h-.02Zm-3.53-4.59l-2.33-5-2.24,5h4.57Z"></path><path class="cls-1" d="m75.48,83.03h-.9l-4.64-11.05h1.4l4.1,9.53,4-9.53h.66l-4.63,11.05h0Z"></path><path class="cls-1" d="m92.56,83.23c-1.01,0-1.95-.26-2.81-.77-.85-.52-1.54-1.21-2.06-2.08-.51-.87-.77-1.83-.77-2.89s.26-2.03.77-2.89c.52-.87,1.2-1.56,2.06-2.07.86-.52,1.79-.78,2.81-.78s1.96.26,2.81.78c.86.51,1.54,1.2,2.06,2.07.52.86.78,1.83.78,2.89s-.26,2.02-.78,2.89c-.51.86-1.2,1.56-2.06,2.08-.84.51-1.78.77-2.81.77Zm0-.65c.84,0,1.57-.22,2.2-.66s1.12-1.05,1.47-1.81c.35-.77.53-1.64.53-2.61,0-1.46-.38-2.67-1.15-3.61-.78-.95-1.8-1.44-3.05-1.46-.82,0-1.55.22-2.18.65s-1.12,1.04-1.48,1.81-.54,1.64-.54,2.61.18,1.84.54,2.61c.35.77.84,1.37,1.47,1.81.62.44,1.35.66,2.19.66Z"></path><path class="cls-1" d="m114.37,83.03h-.56l-8.13-9.22v9.22h-.66v-11.05h1.12l7.56,8.51v-8.51h.66v11.05h0Z"></path><path class="cls-1" d="m130.53,83.03h-.56l-8.13-9.22v9.22h-.66v-11.05h1.12l7.56,8.51v-8.51h.66v11.05h0Z"></path><path class="cls-1" d="m138.68,83.03h-1.33v-11.05h1.33v11.05Z"></path><path class="cls-1" d="m153.67,83.03h-8.17v-11.05h7.95v.66h-6.63v4.53h5.96v.66h-5.96v4.53h6.85v.66h0Zm-3.53-11.69h-.49l-1.5-1.99h1.11l.88,1.99Z"></path><path class="cls-1" d="m169.59,83.03h-1.5l-3.19-5.19h-3.09v5.19h-1.33v-11.05h4.85c.69,0,1.33.13,1.89.38.57.25,1.03.59,1.36,1.03.34.44.51.94.51,1.51,0,.72-.26,1.33-.77,1.83-.51.5-1.18.83-2,1l3.25,5.29h.02Zm-4.25-5.86c.66,0,1.21-.2,1.66-.61.45-.4.67-.95.67-1.66s-.22-1.24-.67-1.65-1-.61-1.66-.61h-3.53v4.53s3.53,0,3.53,0Z"></path><path class="cls-1" d="m184.59,83.03h-8.17v-11.05h7.95v.66h-6.63v4.53h5.96v.66h-5.96v4.53h6.85v.66h0Z"></path><path class="cls-1" d="m195.36,83.23c-.71,0-1.32-.09-1.83-.26-.51-.18-.94-.39-1.29-.64-.34-.25-.62-.49-.84-.73l.49-.45c.8.93,1.97,1.4,3.51,1.42.72,0,1.31-.1,1.79-.3.47-.21.83-.48,1.07-.81.24-.34.36-.71.36-1.1,0-.45-.15-.82-.45-1.11s-.69-.54-1.17-.74c-.48-.21-1-.4-1.55-.58-1.18-.39-2.05-.77-2.6-1.14-.81-.54-1.22-1.25-1.22-2.13s.39-1.55,1.18-2.09c.79-.55,1.8-.82,3.03-.82.58,0,1.11.09,1.59.27.49.17.91.39,1.26.63.35.24.62.46.8.67l-.5.45-.21-.21c-.14-.14-.35-.3-.62-.48-.27-.18-.59-.34-.97-.48-.38-.14-.82-.2-1.31-.2-.88,0-1.57.17-2.09.51-.51.34-.77.76-.77,1.25s.15.85.46,1.16c.31.29.7.55,1.18.76.49.21,1.01.4,1.56.57,1.18.38,2.04.76,2.58,1.12.81.53,1.21,1.23,1.21,2.12,0,.58-.2,1.13-.59,1.63-.38.51-.93.92-1.63,1.24-.7.31-1.5.47-2.42.47h0Z"></path></g><path class="cls-1" d="m153.03,26.17c-5.73-6.26-14.42-9.4-22.34-9.87-7.92-.47-14.54-3.72-21.39-8.27-6.86-4.55-13.18-4.2-13.18-4.2l-3.31-1.83-.24,2.72s-5.67,5.32-8.1,7.74c-2.42,2.42-2.3,4.2-2.3,4.2-1.24-2.22.71-4.17.71-4.17l8.83-8.86.39-3.63,3.28,2.04h5.94c5.5,0,9.22,3.55,9.22,3.55-4.34-3.19-7.98-1.95-7.98-1.95,2.93.44,6.29,2.93,12.77,6.74,6.47,3.81,11.08,4.34,20.03,4.7,5.2.21,10.33,3.85,13.7,6.86,2.44,2.17,3.97,4.25,3.97,4.25v-.02Z"></path><path class="cls-1" d="m103.21,25.05s-1.36-1.12-1.95-5.02-.3-4.02-4.49-6.21c0,0-1.96,2.53-7.42,1.99,0,0-4.4,2.79-6.12,1.43,0,0,5.41-.68,5.67-2.81,0,0,2.62,1.37,4.83-.04,2.22-1.42,3.28-4.61,3.28-4.61,0,0,0,2.29,1.11,3.3,1.11,1,3.9,2.16,4.08,4.68.18,2.53.19,5.75,1,7.28h0Z"></path><path class="cls-1" d="m157.76,5.01s1.65,4.43,1.12,7.51c-.41,2.39-2.27,3.86-6.32,2.54-10.64-3.46-13.76-.26-13.76-.26,0,0,5.86-1.33,10.39,2.04,6.24,4.64,14.01,2.57,13.42-7.05,0,0-.41,2.32-1.68,2.67,0,0,.27-3.78-3.16-7.45h0Z"></path><path class="cls-2" d="m152.32,26.17s-.16-.2-.52-.51-.9-.76-1.67-1.21c-.75-.48-1.74-.94-2.89-1.42-1.16-.44-2.51-.88-4.01-1.17-.38-.08-.76-.16-1.15-.23-.39-.06-.8-.12-1.2-.17-.41-.05-.83-.12-1.25-.16-.42-.03-.86-.06-1.29-.09-.88-.08-1.78-.09-2.7-.1-.92-.03-1.86.03-2.81.08-.96.03-1.92.12-2.9.23-.98.1-1.97.21-2.95.36-1.97.28-3.97.56-5.96.88-3.99.62-7.95,1.31-11.68,1.81-1.86.24-3.67.46-5.38.57s-3.33.16-4.83.11c-1.49-.06-2.86-.18-4.07-.36s-2.25-.42-3.09-.65c-.85-.23-1.51-.43-1.96-.58s-.69-.23-.69-.23c0,0,.23.1.66.3.21.1.48.22.8.34.32.14.68.28,1.11.42,1.67.59,4.14,1.27,7.19,1.54,3.05.29,6.63.15,10.4-.25,3.78-.4,7.77-1.03,11.75-1.64,1.99-.3,3.98-.61,5.94-.9.98-.15,1.95-.27,2.91-.38.95-.13,1.9-.25,2.83-.3.93-.07,1.85-.15,2.75-.15.9-.02,1.78-.06,2.63-.02.43.01.85.02,1.26.04.42.02.82.07,1.22.1s.8.07,1.18.1c.38.05.76.11,1.13.16,1.48.21,2.81.54,3.98.86,1.15.37,2.15.74,2.93,1.14.79.39,1.37.75,1.76,1.02s.57.44.57.44v.02Z"></path></g></g></g></svg>